# xmcd CD database file
# Generated: Tue Sep 14 18:03:23 2004 by WSPse's MP3c
#
# Track frame offsets:
#       150
#       8351
#       19106
#       27816
#       39865
#       53528
#       66130
#       73989
#       82701
#       93888
#       103693
#       112234
#       124726
#       136904
#       148587
#       153224
#       161104
#       171201
#       179394
#       187294
#       196778
#       203804
#       211914
#       227455
#
# Disc length: 3160 seconds
#
# Revision: 0
# Processed by: cddbd v1.5.1PL0 Copyright (c) Steve Scherf et al.
# Submitted via: MP3c 0.27
#   WSPse mp3c-0.27 (NLS) - ENGLISH (Dec 27 2003)
#
DISCID=3a0c5618
DTITLE=Jim Reeves - I Lived A Lot In My Time
DYEAR=1900
DGENRE=
TTITLE0=Bimbo
TTITLE1=My Lips Are Sealed
TTITLE2=If You Were Mine
TTITLE3=I've Lived A Lot In My Time
TTITLE4=Have I Told You Lately That I Love You?
TTITLE5=Am I Losing You?
TTITLE6=Waiting For A Train (1st version)
TTITLE7=Breeze
TTITLE8=According To My Heart
TTITLE9=Beyond The Shadow Of A Doubt
TTITLE10=Oklahoma Hills
TTITLE11=Your Old Love Letters
TTITLE12=Anna Marie
TTITLE13=I Love You More
TTITLE14=Waiting For A Train (2nd version)
TTITLE15=I Get The Blues When It Rains
TTITLE16=Theme Of Love
TTITLE17=Blue Boy
TTITLE18=Bud's Bounce
TTITLE19=I'd Like To Be
TTITLE20=Midnight In Old Amarillo
TTITLE21=Till The End Of The World
TTITLE22=Making Believe
TTITLE23=Billy Bayou
EXTD=
EXTT0=
EXTT1=
EXTT2=
EXTT3=
EXTT4=
EXTT5=
EXTT6=
EXTT7=
EXTT8=
EXTT9=
EXTT10=
EXTT11=
EXTT12=
EXTT13=
EXTT14=
EXTT15=
EXTT16=
EXTT17=
EXTT18=
EXTT19=
EXTT20=
EXTT21=
EXTT22=
EXTT23=
PLAYORDER=
